<svg xmlns="http://www.w3.org/2000/svg" viewBox="0 0 698.1 134.6"><defs><style>.cls-1{fill:#d2232a;}</style></defs><g id="Layer_2" data-name="Layer 2"><g id="Layer_1-2" data-name="Layer 1"><path d="M29.1,56.6c0-4.1,4.4-6.8,11.1-6.8,6.5,0,12.8,1.5,21.5,5.1l7.5-12.3c-8-3.2-17.3-6.6-31.3-6.6C17.5,36,4,45.2,4,58.8A18.47,18.47,0,0,0,9,71.4c3.1,3,10.3,6.3,16.1,7.1L35.4,80c9.2,1.4,13.5,3.8,13.5,8.6,0,4.5-5.1,7.9-11.6,7.9-9.9,0-22.1-4.5-29.1-7.9L0,102c12.8,5.3,24.6,8.1,35.4,8.1,22.4,0,37.4-9.8,37.4-24.4A16.14,16.14,0,0,0,68,73.8c-3.1-3.2-6.7-5.7-17.4-7.9L40,63.7c-8-1.6-10.9-3.5-10.9-7.1m78,29V50.4h14.7l5.8-12.6H107.1a159.46,159.46,0,0,1,1.4-21.2L85.2,21.3c-.9,5.2-.9,9.7-.9,16.6H75.6V50.5h8.7v38c0,6.4.2,7.8,1.5,10.8,2.7,6.2,12,10.3,23.6,10.3a57.76,57.76,0,0,0,18.6-3.2l-2.9-10.9c-4.1,1-6.2,1.4-8.2,1.4-7.7-.1-9.8-2.4-9.8-11.3m74.6-31.7L188,37.8a22,22,0,0,0-8.6-1.5c-8.5,0-15.6,4.6-20.5,10a18.6,18.6,0,0,0-3.6-10l-20.5,4.4c1.9,4,3.2,11.1,3.2,20.5V108h22.9V58.5c4.3-4,8.9-5.9,14-5.9a14,14,0,0,1,6.8,1.3m50.2,23.4-.3,15a18.43,18.43,0,0,1-12,4.8c-5.8,0-10.1-3.7-10.1-9.2,0-8.3,5.5-10.7,21.4-10.7h1Zm18.5,34.2,12.1-11.2c-7.7-4.7-8.4-7.9-8.2-15.6l.5-23.5c.2-7.5-.3-9.7-1.5-12.6-3.4-7.8-13.5-12.2-28.2-12.2a71.12,71.12,0,0,0-23.9,4.1A99.52,99.52,0,0,0,187,46.2l9.7,13.1c9.4-5.1,18-7.9,25.3-7.9,8.4,0,10.3,2.6,10.3,10.4v2.9c-1.9-.1-3.4-.1-5.1-.1-27.9,0-42.1,7.7-42.1,24.1,0,14,10.6,21.9,30.1,21.9,7.2,0,13.3-1.4,17.6-3.8a42.49,42.49,0,0,0,5.3-3.7c2.2,3.4,7,6.6,12.3,8.4m46.3-25.9V50.4h14.7l5.8-12.6H296.7a159.46,159.46,0,0,1,1.4-21.2l-23.3,4.7c-.9,5.2-.9,9.7-.9,16.6h-8.7V50.5h8.7v38c0,6.4.2,7.8,1.5,10.8,2.7,6.2,12,10.3,23.6,10.3a57.76,57.76,0,0,0,18.6-3.2l-2.9-10.9c-4.1,1-6.2,1.4-8.2,1.4-7.8-.1-9.8-2.4-9.8-11.3m47.5-20.7c0-9.7,5-15.2,13.7-15.2,4.6,0,7.9,1.4,10.1,4.1s2.7,5.3,2.7,10.5v.8H344.2Zm-.4,13.7h50.6V74.4c0-14.6-3.6-24.1-11.6-30.6-5.6-4.7-15.2-7.4-25.3-7.4-11.6,0-20.3,3-27.5,9.4-7.7,6.8-10.9,15.2-10.9,27.8,0,22,16.2,36.2,41.4,36.2a58,58,0,0,0,33-9.7l-8.9-10.9a39.88,39.88,0,0,1-22.2,7c-11.8,0-18.5-6.2-18.5-17v-.6ZM451.3,60.4c0,6.4-5,10-14,10-8,0-13.5-2.9-13.5-10,0-6.6,5-10.4,13.7-10.4s13.8,3.9,13.8,10.4m24.5-9.7a25.07,25.07,0,0,0,16.1-5.2l-9.6-11.6a31.64,31.64,0,0,1-18.1,6,53.45,53.45,0,0,1-10.8-1.5,80.38,80.38,0,0,0-15.7-1.8c-22.4,0-36.9,9.3-36.9,23.7,0,10.4,6.2,16.8,18.8,19.4-14.4,3-16.1,7.2-16.1,11.8a9,9,0,0,0,6.7,9.2c4.1,1.4,10.8,2.1,21,2.2l9.7.1c9.1.1,16.1,2.1,16.1,8.3,0,2.9-2.2,5.5-5.6,7.1-3.6,1.8-8.5,2.3-14.4,2.3-10.6,0-16.4-3-16.4-8.6a8.53,8.53,0,0,1,1-4.5H400.4a11.74,11.74,0,0,0-2,7.1c0,4.8,2.4,8.9,7.2,12.4,7.9,5.9,20.7,7.5,33.2,7.5,13.7,0,26.8-2.5,34.5-9,4.8-4.1,7-8.6,7-14.5a17.4,17.4,0,0,0-7.5-14.9c-6.2-4.5-13.2-6.2-26.5-6.3L434,89.8c-2.4,0-3.8-.7-3.8-1.6,0-1.9,3.3-3.6,9.1-5.7,1.7.1,2.4.1,3.4.1,18.6,0,32.3-8.8,32.3-20.8a15.19,15.19,0,0,0-5.1-11.5c1.3.1,3.6.4,5.9.4M495,107.9h22.9V36.2L495,39.1Zm62.3-43c0-9.7,5-15.2,13.7-15.2,4.6,0,7.9,1.4,10.1,4.1s2.7,5.3,2.7,10.5v.8H557.3Zm-.4,13.7h50.6V74.4c0-14.6-3.6-24.1-11.6-30.6-5.6-4.7-15.2-7.4-25.3-7.4-11.6,0-20.4,3-27.5,9.4-7.7,6.8-10.9,15.2-10.9,27.8,0,22,16.2,36.2,41.4,36.2a58,58,0,0,0,33-9.7l-8.9-10.9a39.88,39.88,0,0,1-22.2,7c-11.8,0-18.5-6.2-18.5-17v-.6ZM672.3,54.8l7.5-12.3c-8-3.2-17.3-6.6-31.3-6.6-20.3,0-33.9,9.2-33.9,22.8a18.47,18.47,0,0,0,5,12.6c3.1,3,10.3,6.3,16.1,7.1L646,79.9c9.2,1.4,13.5,3.8,13.5,8.6,0,4.5-5.1,7.9-11.6,7.9-9.9,0-22.1-4.5-29.1-7.9l-8.2,13.4c12.8,5.3,24.6,8.1,35.4,8.1,22.4,0,37.5-9.8,37.5-24.4a16.14,16.14,0,0,0-4.8-11.9c-3.1-3.2-6.7-5.7-17.4-7.9l-10.6-2.2c-8-1.6-10.9-3.6-10.9-7.1,0-4.1,4.4-6.8,11.1-6.8,6.3.1,12.7,1.6,21.4,5.1"/><path class="cls-1" d="M518.5,14.1A13.87,13.87,0,0,0,504.8,0a14.1,14.1,0,1,0,13.7,14.1"/><path d="M698.1,108.7l-.8-8.7h-2.2l-1.2,4.3c-.1.5-.2,1-.3,1.4a12.08,12.08,0,0,0-.3-1.4l-1.1-4.4H690l-.8,8.7h1.7l.3-4.5c0-.5.1-1,.1-1.6a6.58,6.58,0,0,0,.4,1.5l1.2,4.6h1.5l1.4-4.8c.1-.5.2-.8.3-1.3a6.6,6.6,0,0,0,.1,1.4l.3,4.6h1.6Zm-9.3-8.7h-6.3v1.5h2.1v7.2h1.8v-7.2h2.1Z"/></g></g></svg>